<svg xmlns="http://www.w3.org/2000/svg" viewBox="0 0 24 25" width="24" height="25">
	<style>
		tspan { white-space:pre }
		.shp0 { fill: #0cc555 } 
	</style>
	<g id="Skills">
		<g id="Experience">
			<g id="Company 03">
				<g id="Logo">
					<path id="logo" class="shp0" d="M21.05 20.58C10.84 25.49 4.51 21.38 0.45 18.89C0.2 18.73 -0.23 18.92 0.14 19.35C1.5 21.01 5.92 25 11.7 25C17.49 25 20.93 21.81 21.36 21.25C21.78 20.7 21.48 20.4 21.05 20.58L21.05 20.58ZM23.92 18.98C23.64 18.62 22.25 18.55 21.37 18.66C20.5 18.77 19.18 19.31 19.29 19.63C19.35 19.76 19.47 19.7 20.08 19.65C20.68 19.58 22.37 19.37 22.73 19.84C23.08 20.3 22.19 22.54 22.02 22.9C21.87 23.26 22.08 23.36 22.38 23.12C22.67 22.88 23.2 22.25 23.56 21.37C23.91 20.49 24.13 19.25 23.92 18.98L23.92 18.98ZM14.19 10.56C14.19 11.85 14.22 12.92 13.58 14.07C13.05 15 12.23 15.57 11.31 15.57C10.05 15.57 9.32 14.6 9.32 13.17C9.32 10.35 11.82 9.84 14.19 9.84L14.19 10.56ZM17.49 18.62C17.27 18.82 16.96 18.83 16.71 18.7C15.63 17.79 15.43 17.36 14.84 16.49C13.04 18.35 11.77 18.9 9.44 18.9C6.69 18.9 4.55 17.18 4.55 13.75C4.55 11.06 5.99 9.23 8.03 8.34C9.81 7.55 12.29 7.41 14.19 7.19L14.19 6.76C14.19 5.98 14.25 5.05 13.79 4.37C13.39 3.76 12.63 3.51 11.96 3.51C10.71 3.51 9.59 4.15 9.32 5.49C9.27 5.79 9.05 6.08 8.76 6.1L5.58 5.75C5.31 5.69 5.02 5.47 5.09 5.06C5.83 1.17 9.3 0 12.41 0C14 0 16.08 0.43 17.34 1.65C18.93 3.15 18.78 5.15 18.78 7.34L18.78 12.49C18.78 14.04 19.41 14.72 20.01 15.55C20.22 15.85 20.27 16.21 20 16.43C19.34 17 18.15 18.04 17.5 18.63L17.49 18.62M21.05 20.58C10.84 25.49 4.51 21.38 0.45 18.89C0.2 18.73 -0.23 18.92 0.14 19.35C1.5 21.01 5.92 25 11.7 25C17.49 25 20.93 21.81 21.36 21.25C21.78 20.7 21.48 20.4 21.05 20.58L21.05 20.58ZM23.92 18.98C23.64 18.62 22.25 18.55 21.37 18.66C20.5 18.77 19.18 19.31 19.29 19.63C19.35 19.76 19.47 19.7 20.08 19.65C20.68 19.58 22.37 19.37 22.73 19.84C23.08 20.3 22.19 22.54 22.02 22.9C21.87 23.26 22.08 23.36 22.38 23.12C22.67 22.88 23.2 22.25 23.56 21.37C23.91 20.49 24.13 19.25 23.92 18.98L23.92 18.98ZM14.19 10.56C14.19 11.85 14.22 12.92 13.58 14.07C13.05 15 12.23 15.57 11.31 15.57C10.05 15.57 9.32 14.6 9.32 13.17C9.32 10.35 11.82 9.84 14.19 9.84L14.19 10.56ZM17.49 18.62C17.27 18.82 16.96 18.83 16.71 18.7C15.63 17.79 15.43 17.36 14.84 16.49C13.04 18.35 11.77 18.9 9.44 18.9C6.69 18.9 4.55 17.18 4.55 13.75C4.55 11.06 5.99 9.23 8.03 8.34C9.81 7.55 12.29 7.41 14.19 7.19L14.19 6.76C14.19 5.98 14.25 5.05 13.79 4.37C13.39 3.76 12.63 3.51 11.96 3.51C10.71 3.51 9.59 4.15 9.32 5.49C9.27 5.79 9.05 6.08 8.76 6.1L5.58 5.75C5.31 5.69 5.02 5.47 5.09 5.06C5.83 1.17 9.3 0 12.41 0C14 0 16.08 0.43 17.34 1.65C18.93 3.15 18.78 5.15 18.78 7.34L18.78 12.49C18.78 14.04 19.41 14.72 20.01 15.55C20.22 15.85 20.27 16.21 20 16.43C19.34 17 18.15 18.04 17.5 18.63L17.49 18.62" />
				</g>
			</g>
		</g>
	</g>
</svg>