<svg xmlns="http://www.w3.org/2000/svg" viewBox="0 0 21 25" width="21" height="25">
	<style>
		tspan { white-space:pre }
		.shp0 { fill: #ffffff } 
	</style>
	<g id="Skills">
		<g id="Experience">
			<g id="Company 01">
				<g id="Logo">
					<path id="logo" class="shp0" d="M17.54 13.28C17.57 17.07 20.96 18.33 21 18.34C20.97 18.43 20.46 20.14 19.21 21.9C18.14 23.42 17.02 24.94 15.27 24.97C13.54 25 12.98 23.98 11.01 23.98C9.04 23.98 8.42 24.94 6.78 25C5.09 25.06 3.8 23.35 2.71 21.84C0.5 18.73 -1.19 13.06 1.08 9.24C2.21 7.34 4.22 6.14 6.41 6.1C8.08 6.07 9.65 7.19 10.67 7.19C11.69 7.19 13.6 5.85 15.61 6.05C16.45 6.08 18.81 6.37 20.33 8.53C20.2 8.6 17.51 10.12 17.54 13.28M14.29 3.99C15.19 2.93 15.8 1.46 15.63 0C14.34 0.05 12.77 0.84 11.83 1.89C11 2.83 10.27 4.33 10.47 5.76C11.91 5.87 13.39 5.05 14.29 3.99" />
				</g>
			</g>
		</g>
	</g>
</svg>