<svg xmlns="http://www.w3.org/2000/svg" viewBox="0 0 36 40" width="36" height="40">
	<style>
		tspan { white-space:pre }
		.shp0 { fill: #ffffff } 
	</style>
	<g id="Services">
		<g id="Services 06">
			<g id="Icon">
				<path id="Icon" class="shp0" d="M18 40C15.42 40 13.32 37.9 13.32 35.31L13.32 35.27C13.32 34.72 12.99 34.22 12.47 34.02C11.04 33.46 9.71 32.68 8.51 31.71C8.07 31.35 7.48 31.3 6.99 31.58C6.99 31.58 6.99 31.58 6.99 31.58C4.74 32.85 1.88 32.06 0.61 29.81C-0.01 28.72 -0.16 27.46 0.17 26.26C0.5 25.05 1.29 24.04 2.38 23.43L2.4 23.42C2.87 23.15 3.14 22.61 3.07 22.08C2.97 21.39 2.92 20.68 2.92 19.98C2.92 19.25 2.98 18.51 3.08 17.79C3.16 17.25 2.89 16.7 2.4 16.43L2.38 16.41C1.29 15.8 0.5 14.79 0.17 13.59C-0.16 12.38 -0.01 11.12 0.61 10.03C1.88 7.79 4.74 6.99 6.99 8.26L7.08 8.32C7.56 8.59 8.15 8.54 8.6 8.18C9.27 7.64 10.25 7.75 10.79 8.43C11.32 9.1 11.21 10.09 10.54 10.63C9.1 11.78 7.13 11.94 5.54 11.03L5.45 10.98C4.7 10.56 3.75 10.82 3.32 11.57C3.12 11.93 3.06 12.35 3.17 12.75C3.29 13.15 3.55 13.49 3.91 13.69C3.91 13.69 3.92 13.7 3.92 13.7L3.94 13.71C5.53 14.62 6.43 16.44 6.17 18.24C6.08 18.81 6.04 19.4 6.04 19.98C6.04 20.54 6.08 21.1 6.16 21.65C6.41 23.46 5.54 25.22 3.94 26.13L3.91 26.15C3.55 26.36 3.29 26.69 3.17 27.09C3.06 27.49 3.12 27.91 3.32 28.27C3.75 29.02 4.7 29.28 5.46 28.86C7.06 27.95 9.03 28.11 10.47 29.28C11.42 30.05 12.48 30.67 13.61 31.11C15.33 31.79 16.44 33.42 16.44 35.27L16.44 35.31C16.44 36.17 17.14 36.87 18 36.87C18.86 36.87 19.56 36.17 19.56 35.31L19.56 35.24C19.56 33.4 20.66 31.77 22.37 31.09C23.49 30.64 24.53 30.03 25.47 29.27C26.92 28.09 28.89 27.92 30.5 28.83L30.55 28.86C31.3 29.28 32.26 29.02 32.68 28.27C32.88 27.91 32.94 27.49 32.83 27.09C32.71 26.69 32.45 26.36 32.09 26.15L31.99 26.09C30.39 25.19 29.52 23.43 29.77 21.62C29.85 21.08 29.88 20.53 29.88 19.98C29.88 19.4 29.84 18.82 29.76 18.26C29.5 16.47 30.39 14.66 31.97 13.76L32.08 13.69C32.45 13.49 32.71 13.15 32.83 12.75C32.94 12.35 32.88 11.93 32.68 11.57C32.25 10.82 31.3 10.56 30.54 10.98L30.41 11.06C28.9 11.92 27 11.81 25.58 10.78C24.88 10.27 24.73 9.29 25.23 8.59C25.74 7.9 26.71 7.74 27.41 8.25C27.84 8.56 28.42 8.6 28.87 8.34L29.01 8.26C31.26 6.99 34.12 7.79 35.39 10.03C36.01 11.12 36.16 12.38 35.83 13.59C35.49 14.79 34.71 15.8 33.62 16.42L33.51 16.48C33.04 16.75 32.77 17.28 32.84 17.81C32.95 18.52 33 19.25 33 19.98C33 20.67 32.95 21.36 32.86 22.04C32.79 22.57 33.06 23.11 33.53 23.37L33.62 23.43C34.71 24.04 35.49 25.05 35.83 26.26C36.16 27.46 36.01 28.72 35.39 29.81C34.12 32.06 31.26 32.85 29.01 31.58L28.96 31.55C28.48 31.27 27.88 31.33 27.43 31.69C26.25 32.65 24.93 33.43 23.53 33.99C23.01 34.2 22.68 34.69 22.68 35.24L22.68 35.31C22.67 37.9 20.58 40 18 40L18 40ZM26.73 20C26.73 19.14 26.03 18.44 25.17 18.44C24.31 18.44 23.61 19.14 23.61 20C23.61 23.1 21.09 25.62 18 25.62C14.91 25.62 12.39 23.1 12.39 20C12.39 19.14 11.69 18.44 10.83 18.44C9.97 18.44 9.27 19.14 9.27 20C9.27 24.82 13.19 28.75 18 28.75C22.81 28.75 26.73 24.82 26.73 20L26.73 20ZM17.99 20.16C15.42 20.16 13.32 18.05 13.32 15.47L13.32 8.39C13.32 6.63 13.84 4.92 14.81 3.45C14.82 3.44 14.82 3.44 14.82 3.43L16.71 0.68C17 0.25 17.48 0 17.99 0C18.51 0 18.99 0.25 19.28 0.68L21.16 3.43C21.17 3.44 21.17 3.44 21.18 3.45C22.15 4.92 22.67 6.63 22.67 8.39L22.67 15.47C22.67 18.05 20.57 20.16 17.99 20.16L17.99 20.16ZM17.4 5.19C16.77 6.14 16.44 7.25 16.44 8.39L16.44 15.47C16.44 16.33 17.13 17.03 17.99 17.03C18.85 17.03 19.55 16.33 19.55 15.47L19.55 8.39C19.55 7.25 19.22 6.14 18.59 5.19L17.99 4.32L17.4 5.19ZM17.4 5.19" />
			</g>
		</g>
	</g>
</svg>