<svg xmlns="http://www.w3.org/2000/svg" viewBox="0 0 41 40" width="41" height="40">
	<style>
		tspan { white-space:pre }
		.shp0 { fill: #ffffff } 
	</style>
	<g id="Services">
		<g id="Services 03">
			<g id="Icon">
				<path id="Icon" class="shp0" d="M20.5 25.43C18.64 25.43 16.78 24.98 15.09 24.06L2.86 17.47C1.09 16.52 -0.01 14.67 0 12.65C0.01 10.64 1.11 8.79 2.89 7.85L15.15 1.34C18.5 -0.45 22.5 -0.45 25.85 1.34L38.11 7.85C39.88 8.79 40.99 10.64 41 12.65C41 14.67 39.91 16.52 38.14 17.47L25.91 24.06C24.22 24.98 22.36 25.43 20.5 25.43L20.5 25.43ZM20.5 3.22C19.17 3.22 17.85 3.54 16.64 4.18L4.39 10.7C3.65 11.09 3.21 11.82 3.2 12.66C3.2 13.5 3.64 14.24 4.38 14.64L16.6 21.23C19.04 22.54 21.96 22.54 24.4 21.23L36.62 14.64C37.36 14.24 37.8 13.5 37.8 12.66C37.79 11.82 37.35 11.09 36.61 10.7L24.36 4.18C23.15 3.54 21.82 3.22 20.5 3.22L20.5 3.22ZM15.89 2.76L15.89 2.76L15.89 2.76ZM25.91 38.63L40.15 30.95C40.93 30.53 41.23 29.56 40.81 28.77C40.39 27.99 39.42 27.7 38.64 28.12L24.4 35.79C21.96 37.11 19.04 37.11 16.59 35.79L2.35 28.19C1.57 27.78 0.6 28.07 0.19 28.86C-0.23 29.65 0.07 30.62 0.85 31.04L15.09 38.63C16.78 39.54 18.64 40 20.5 40C22.36 40 24.22 39.54 25.91 38.63L25.91 38.63ZM25.91 31.39L40.15 23.71C40.93 23.29 41.23 22.31 40.81 21.53C40.39 20.75 39.42 20.45 38.64 20.87L24.4 28.55C21.96 29.87 19.04 29.87 16.59 28.55L2.35 20.95C1.57 20.53 0.6 20.83 0.19 21.62C-0.23 22.4 0.07 23.38 0.85 23.79L15.09 31.39C16.78 32.3 18.64 32.76 20.5 32.76C22.36 32.76 24.22 32.3 25.91 31.39L25.91 31.39ZM25.91 31.39" />
			</g>
		</g>
	</g>
</svg>