<svg xmlns="http://www.w3.org/2000/svg" viewBox="0 0 40 40" width="40" height="40">
	<style>
		tspan { white-space:pre }
		.shp0 { fill: #ffffff } 
	</style>
	<g id="Services">
		<g id="Services 04">
			<g id="Icon">
				<path id="Icon" class="shp0" d="M21.28 10.2L21.28 18.28L24.3 18.28C25.16 18.28 25.86 18.98 25.86 19.84C25.86 20.71 25.16 21.41 24.3 21.41L21.28 21.41L21.28 29.72C21.28 31.47 22.71 32.89 24.45 32.89C25.32 32.89 26.02 33.59 26.02 34.45C26.02 35.32 25.32 36.01 24.45 36.01C20.98 36.01 18.16 33.19 18.16 29.72L18.16 10.2C18.16 6.73 20.98 3.91 24.45 3.91C25.32 3.91 26.02 4.61 26.02 5.47C26.02 6.33 25.32 7.03 24.45 7.03C22.71 7.03 21.28 8.45 21.28 10.2L21.28 10.2ZM40 19.84C40 22.94 37.48 25.47 34.37 25.47C31.27 25.47 28.75 22.94 28.75 19.84C28.75 16.74 31.27 14.22 34.37 14.22C37.48 14.22 40 16.74 40 19.84L40 19.84ZM36.88 19.84C36.88 18.46 35.75 17.34 34.37 17.34C33 17.34 31.87 18.46 31.87 19.84C31.87 21.22 33 22.34 34.37 22.34C35.75 22.34 36.88 21.22 36.88 19.84L36.88 19.84ZM28.75 5.62C28.75 2.52 31.27 0 34.37 0C37.48 0 40 2.52 40 5.62C40 8.73 37.48 11.25 34.37 11.25C31.27 11.25 28.75 8.73 28.75 5.62L28.75 5.62ZM31.87 5.62C31.87 7 33 8.12 34.37 8.12C35.75 8.12 36.88 7 36.88 5.62C36.88 4.25 35.75 3.12 34.37 3.12C33 3.12 31.87 4.25 31.87 5.62L31.87 5.62ZM14.84 19.97L14.84 26.56C14.84 26.93 14.73 27.27 14.49 27.55C14.39 27.68 12.03 30.81 12.03 36.61C12.03 38.48 10.43 40 8.47 40L6.37 40C4.41 40 2.81 38.48 2.81 36.61C2.81 30.72 0.38 27.58 0.35 27.55C0.12 27.27 0 26.92 0 26.56L0 19.97C0 16.15 3.11 13.05 6.93 13.05L7.92 13.05C11.74 13.05 14.84 16.15 14.84 19.97L14.84 19.97ZM11.72 19.97C11.72 17.88 10.01 16.17 7.92 16.17L6.93 16.17C4.83 16.17 3.13 17.88 3.13 19.97L3.13 26.06C3.95 27.31 5.94 30.88 5.94 36.61C5.94 36.71 6.14 36.87 6.37 36.87L8.47 36.87C8.71 36.87 8.9 36.71 8.9 36.61C8.9 30.88 10.89 27.31 11.72 26.06L11.72 19.97ZM2.03 5.31C2.03 2.38 4.41 0 7.34 0C10.27 0 12.66 2.38 12.66 5.31C12.66 8.24 10.27 10.62 7.34 10.62C4.41 10.62 2.03 8.24 2.03 5.31L2.03 5.31ZM5.16 5.31C5.16 6.52 6.14 7.5 7.34 7.5C8.55 7.5 9.53 6.52 9.53 5.31C9.53 4.11 8.55 3.12 7.34 3.12C6.14 3.12 5.16 4.11 5.16 5.31L5.16 5.31ZM40 34.37C40 37.48 37.48 40 34.37 40C31.27 40 28.75 37.48 28.75 34.37C28.75 31.27 31.27 28.75 34.37 28.75C37.48 28.75 40 31.27 40 34.37L40 34.37ZM36.88 34.37C36.88 33 35.75 31.87 34.37 31.87C33 31.87 31.87 33 31.87 34.37C31.87 35.75 33 36.87 34.37 36.87C35.75 36.87 36.88 35.75 36.88 34.37L36.88 34.37ZM36.88 34.37" />
			</g>
		</g>
	</g>
</svg>