<svg xmlns="http://www.w3.org/2000/svg" viewBox="0 0 20 20" width="20" height="20">
	<style>
		tspan { white-space:pre }
		.shp0 { fill: #ffffff } 
	</style>
	<g id="Header">
		<g id="icon">
			<path id="search" class="shp0" d="M19.75 18.58L14.07 12.89C15.17 11.53 15.83 9.8 15.83 7.92C15.83 3.55 12.28 0 7.92 0C3.55 0 0 3.55 0 7.92C0 12.28 3.55 15.83 7.92 15.83C9.8 15.83 11.53 15.17 12.89 14.07L18.58 19.76C18.74 19.92 18.95 20 19.17 20C19.38 20 19.59 19.92 19.75 19.76C20.08 19.43 20.08 18.9 19.75 18.58ZM7.92 14.17C4.47 14.17 1.67 11.36 1.67 7.92C1.67 4.47 4.47 1.67 7.92 1.67C11.36 1.67 14.17 4.47 14.17 7.92C14.17 11.36 11.36 14.17 7.92 14.17Z" />
		</g>
	</g>
</svg>