<svg xmlns="http://www.w3.org/2000/svg" viewBox="0 0 20 20" width="20" height="20">
	<style>
		tspan { white-space:pre }
		.shp0 { fill: #0cc555 } 
	</style>
	<g id="Header">
		<g id="icon">
			<path id="menu" class="shp0" d="M6.8 9.37L2.58 9.37C1.16 9.37 0 8.22 0 6.8L0 2.58C0 1.16 1.16 0 2.58 0L6.8 0C8.22 0 9.37 1.16 9.37 2.58L9.37 6.8C9.37 8.22 8.22 9.37 6.8 9.37L6.8 9.37ZM2.58 1.25C1.85 1.25 1.25 1.85 1.25 2.58L1.25 6.8C1.25 7.53 1.85 8.12 2.58 8.12L6.8 8.12C7.53 8.12 8.12 7.53 8.12 6.8L8.12 2.58C8.12 1.85 7.53 1.25 6.8 1.25L2.58 1.25ZM2.58 1.25M17.42 9.37L13.2 9.37C11.78 9.37 10.63 8.22 10.63 6.8L10.63 2.58C10.63 1.16 11.78 0 13.2 0L17.42 0C18.84 0 20 1.16 20 2.58L20 6.8C20 8.22 18.84 9.37 17.42 9.37L17.42 9.37ZM13.2 1.25C12.47 1.25 11.87 1.85 11.87 2.58L11.87 6.8C11.87 7.53 12.47 8.12 13.2 8.12L17.42 8.12C18.15 8.12 18.75 7.53 18.75 6.8L18.75 2.58C18.75 1.85 18.15 1.25 17.42 1.25L13.2 1.25ZM13.2 1.25M15.31 20C12.73 20 10.63 17.9 10.63 15.31C10.63 12.73 12.73 10.62 15.31 10.62C17.9 10.62 20 12.73 20 15.31C20 17.9 17.9 20 15.31 20L15.31 20ZM15.31 11.87C13.42 11.87 11.87 13.42 11.87 15.31C11.87 17.21 13.42 18.75 15.31 18.75C17.21 18.75 18.75 17.21 18.75 15.31C18.75 13.42 17.21 11.87 15.31 11.87L15.31 11.87ZM15.31 11.87M6.8 20L2.58 20C1.16 20 0 18.84 0 17.42L0 13.2C0 11.78 1.16 10.62 2.58 10.62L6.8 10.62C8.22 10.62 9.37 11.78 9.37 13.2L9.37 17.42C9.37 18.84 8.22 20 6.8 20L6.8 20ZM2.58 11.87C1.85 11.87 1.25 12.47 1.25 13.2L1.25 17.42C1.25 18.15 1.85 18.75 2.58 18.75L6.8 18.75C7.53 18.75 8.12 18.15 8.12 17.42L8.12 13.2C8.12 12.47 7.53 11.87 6.8 11.87L2.58 11.87ZM2.58 11.87" />
		</g>
	</g>
</svg>