<svg xmlns="http://www.w3.org/2000/svg" viewBox="0 0 39 40" width="39" height="40">
	<style>
		tspan { white-space:pre }
		.shp0 { fill: #ffffff } 
	</style>
	<g id="Services">
		<g id="Services 05">
			<g id="Icon">
				<path id="Icon" class="shp0" d="M29.98 18.48L1.52 18.48C0.68 18.48 0 17.78 0 16.91C0 16.05 0.68 15.36 1.52 15.36L29.98 15.36C33.27 15.36 35.95 12.61 35.95 9.23C35.95 5.86 33.25 3.12 29.94 3.12C27.46 3.12 25.67 4.79 25.67 7.1C25.67 8.47 26.8 9.83 27.95 9.83C28.8 9.83 29.48 10.52 29.48 11.39C29.48 12.25 28.8 12.95 27.95 12.95C26.54 12.95 25.14 12.26 24.12 11.08C23.17 9.97 22.62 8.52 22.62 7.1C22.62 5.09 23.4 3.26 24.82 1.95C26.17 0.69 27.99 0 29.94 0C34.93 0 39 4.14 39 9.23C39 14.33 34.95 18.48 29.98 18.48L29.98 18.48ZM39 30.77C39 25.67 34.95 21.52 29.98 21.52L1.52 21.52C0.68 21.52 0 22.22 0 23.08C0 23.95 0.68 24.64 1.52 24.64L29.98 24.64C33.27 24.64 35.95 27.39 35.95 30.77C35.95 34.14 33.25 36.88 29.94 36.88C27.46 36.88 25.67 35.21 25.67 32.9C25.67 31.53 26.8 30.17 27.95 30.17C28.8 30.17 29.48 29.47 29.48 28.61C29.48 27.75 28.8 27.05 27.95 27.05C26.54 27.05 25.14 27.73 24.12 28.92C23.17 30.03 22.62 31.48 22.62 32.9C22.62 34.91 23.4 36.74 24.82 38.05C26.17 39.31 27.99 40 29.94 40C34.93 40 39 35.86 39 30.77L39 30.77ZM19.65 6.3C19.65 4.62 19.06 3.05 17.99 1.88C16.89 0.67 15.36 0 13.71 0C10.7 0 8.15 2.49 8.15 5.44C8.15 6.31 8.83 7 9.67 7C10.51 7 11.2 6.31 11.2 5.44C11.2 4.23 12.4 3.12 13.71 3.12C15.39 3.12 16.61 4.46 16.61 6.3C16.61 8.07 15.2 9.51 13.48 9.51L1.52 9.51C0.68 9.51 0 10.2 0 11.07C0 11.93 0.68 12.63 1.52 12.63L13.48 12.63C16.88 12.63 19.65 9.79 19.65 6.3L19.65 6.3ZM17.99 38.12C19.06 36.95 19.65 35.38 19.65 33.7C19.65 30.21 16.88 27.37 13.48 27.37L1.52 27.37C0.68 27.37 0 28.07 0 28.93C0 29.79 0.68 30.49 1.52 30.49L13.48 30.49C15.2 30.49 16.61 31.93 16.61 33.7C16.61 35.54 15.39 36.88 13.71 36.88C12.4 36.88 11.2 35.77 11.2 34.56C11.2 33.69 10.51 33 9.67 33C8.83 33 8.15 33.69 8.15 34.56C8.15 37.51 10.7 40 13.71 40C15.36 40 16.89 39.33 17.99 38.12L17.99 38.12ZM17.99 38.12" />
			</g>
		</g>
	</g>
</svg>