<svg xmlns="http://www.w3.org/2000/svg" viewBox="0 0 25 26" width="25" height="26">
	<style>
		tspan { white-space:pre }
		.shp0 { fill: #0cc555 } 
	</style>
	<g id="Skills">
		<g id="Experience">
			<g id="Company 04">
				<g id="Logo">
					<path id="logo" class="shp0" d="M8.97 6.3C9.21 5.55 9.8 5.94 9.8 5.94C9.8 5.94 11.34 7.08 15.54 9.71C19.75 12.34 25 8.69 25 8.69L12.54 0C7.07 5.69 0.08 7.73 0.08 7.73L0.1 7.73L16.02 18.7C15.79 19.45 15.2 19.07 15.2 19.07C15.2 19.07 13.66 17.92 9.46 15.29C5.25 12.66 0 16.31 0 16.31L12.46 25C17.93 19.31 24.92 17.28 24.92 17.28L24.9 17.27L8.97 6.3L8.97 6.3Z" />
				</g>
			</g>
		</g>
	</g>
</svg>