<svg xmlns="http://www.w3.org/2000/svg" viewBox="0 0 40 40" width="40" height="40">
	<style>
		tspan { white-space:pre }
		.shp0 { fill: #0cc555 } 
	</style>
	<g id="Services">
		<g id="Hover+Services 02">
			<g id="Icon">
				<path id="Icon" class="shp0" d="M13.83 33.75L9.11 33.75C8.64 32.42 7.59 31.36 6.26 30.89L6.26 26.17C6.26 25.31 5.56 24.61 4.69 24.61C3.83 24.61 3.13 25.31 3.13 26.17L3.13 30.89C1.31 31.54 0.01 33.27 0.01 35.31C0.01 37.9 2.11 40 4.69 40C6.73 40 8.47 38.69 9.11 36.87L13.83 36.87C14.7 36.87 15.39 36.18 15.39 35.31C15.39 34.45 14.7 33.75 13.83 33.75L13.83 33.75ZM4.69 36.87C3.83 36.87 3.13 36.17 3.13 35.31C3.13 34.45 3.83 33.75 4.69 33.75C5.55 33.75 6.26 34.45 6.26 35.31C6.26 36.17 5.55 36.87 4.69 36.87L4.69 36.87ZM35.31 0C33.28 0 31.54 1.31 30.89 3.12L26.1 3.12C25.23 3.12 24.53 3.82 24.53 4.69C24.53 5.55 25.23 6.25 26.1 6.25L30.89 6.25C31.37 7.58 32.42 8.63 33.75 9.11L33.75 13.75C33.75 14.61 34.45 15.31 35.31 15.31C36.18 15.31 36.88 14.61 36.88 13.75L36.88 9.11C38.69 8.46 40 6.72 40 4.69C40 2.1 37.9 0 35.31 0L35.31 0ZM35.31 6.25C34.45 6.25 33.75 5.55 33.75 4.69C33.75 3.83 34.45 3.12 35.31 3.12C36.17 3.12 36.88 3.83 36.88 4.69C36.88 5.55 36.17 6.25 35.31 6.25L35.31 6.25ZM37.27 20.16C37.27 21.23 36.39 22.11 35.31 22.11C34.23 22.11 33.36 21.23 33.36 20.16C33.36 19.08 34.23 18.2 35.31 18.2C36.39 18.2 37.27 19.08 37.27 20.16L37.27 20.16ZM23.52 21.72C23.52 22.8 22.64 23.67 21.57 23.67C20.49 23.67 19.61 22.8 19.61 21.72C19.61 20.64 20.49 19.77 21.57 19.77C22.64 19.77 23.52 20.64 23.52 21.72L23.52 21.72ZM13.83 3.12L9.11 3.12C8.47 1.31 6.73 0 4.69 0C2.11 0 0.01 2.1 0.01 4.69C0.01 6.72 1.31 8.46 3.13 9.11L3.13 13.75C3.13 14.61 3.83 15.31 4.69 15.31C5.56 15.31 6.26 14.61 6.26 13.75L6.26 9.11C7.59 8.63 8.64 7.58 9.11 6.25L13.83 6.25C14.7 6.25 15.39 5.55 15.39 4.69C15.39 3.82 14.7 3.12 13.83 3.12L13.83 3.12ZM4.69 6.25C3.83 6.25 3.13 5.55 3.13 4.69C3.13 3.83 3.83 3.12 4.69 3.12C5.55 3.12 6.26 3.83 6.26 4.69C6.26 5.55 5.55 6.25 4.69 6.25L4.69 6.25ZM21.88 35.31C21.88 36.39 21 37.26 19.93 37.26C18.85 37.26 17.97 36.39 17.97 35.31C17.97 34.23 18.85 33.36 19.93 33.36C21 33.36 21.88 34.23 21.88 35.31L21.88 35.31ZM17.97 4.69C17.97 3.61 18.85 2.73 19.93 2.73C21 2.73 21.88 3.61 21.88 4.69C21.88 5.77 21 6.64 19.93 6.64C18.85 6.64 17.97 5.77 17.97 4.69L17.97 4.69ZM39.55 31.16L31.14 22.68C30.58 19.84 29.28 17.03 27.35 14.52C26.95 13.99 26.25 13.77 25.62 13.99C22.76 14.94 19.21 14.47 14.77 12.55C14.19 12.3 13.51 12.42 13.06 12.86C12.61 13.3 12.46 13.97 12.69 14.55C14.25 18.54 14.69 22.39 13.95 25.71C13.83 26.24 13.99 26.79 14.38 27.17C16.52 29.27 19.88 30.94 22.6 31.32L30.69 39.53C30.99 39.84 31.39 40 31.8 40C32.19 40 32.59 39.85 32.89 39.55C33.51 38.94 33.52 37.96 32.91 37.34L24.43 28.73C24.16 28.46 23.8 28.29 23.42 28.27C21.57 28.15 18.97 26.96 17.17 25.48C17.63 22.71 17.45 19.7 16.64 16.59C18.76 17.26 20.71 17.59 22.52 17.59C23.56 17.59 24.54 17.48 25.49 17.27C26.71 19.05 27.56 20.98 28 22.92L26.16 24.75C25.55 25.36 25.55 26.35 26.16 26.96C26.77 27.57 27.76 27.57 28.37 26.96L29.68 25.65L37.33 33.37C37.63 33.67 38.04 33.83 38.44 33.83C38.83 33.83 39.23 33.68 39.54 33.37C40.15 32.77 40.15 31.78 39.55 31.16L39.55 31.16ZM4.69 18.2C3.61 18.2 2.74 19.08 2.74 20.16C2.74 21.23 3.61 22.11 4.69 22.11C5.77 22.11 6.65 21.23 6.65 20.16C6.65 19.08 5.77 18.2 4.69 18.2L4.69 18.2ZM4.69 18.2" />
			</g>
		</g>
	</g>
</svg>