<svg xmlns="http://www.w3.org/2000/svg" viewBox="0 0 40 40" width="40" height="40">
	<style>
		tspan { white-space:pre }
		.shp0 { fill: #ffffff } 
	</style>
	<g id="Services">
		<g id="Services 01">
			<g id="Icon">
				<path id="Icon" class="shp0" d="M30.62 33.75L9.37 33.75C4.2 33.75 0 29.54 0 24.38L0 11.56C0 6.39 4.21 2.19 9.37 2.19L11.25 2.19C12.11 2.19 12.81 2.89 12.81 3.75C12.81 4.61 12.11 5.31 11.25 5.31L9.37 5.31C5.93 5.31 3.13 8.12 3.13 11.56L3.13 24.38C3.13 27.82 5.93 30.62 9.37 30.62L30.62 30.62C34.07 30.62 36.88 27.82 36.88 24.37L36.88 11.56C36.88 8.12 34.07 5.31 30.62 5.31L28.67 5.31C27.81 5.31 27.11 4.61 27.11 3.75C27.11 2.89 27.81 2.19 28.67 2.19L30.62 2.19C35.79 2.19 40 6.39 40 11.56L40 24.37C40 29.54 35.79 33.75 30.62 33.75L30.62 33.75ZM29.06 38.44C29.06 37.57 28.36 36.87 27.5 36.87L12.5 36.87C11.64 36.87 10.94 37.57 10.94 38.44C10.94 39.3 11.64 40 12.5 40L27.5 40C28.36 40 29.06 39.3 29.06 38.44L29.06 38.44ZM20 26.11C16.98 26.11 14.53 23.65 14.53 20.64L14.53 10.1C14.53 7.97 15.16 5.91 16.34 4.14C16.34 4.13 16.34 4.13 16.35 4.12L18.71 0.68C19 0.25 19.48 0 20 0C20.52 0 21 0.25 21.29 0.68L23.65 4.12C23.66 4.13 23.66 4.13 23.66 4.14C24.84 5.91 25.47 7.97 25.47 10.1L25.47 20.64C25.47 23.65 23.02 26.11 20 26.11L20 26.11ZM18.93 5.88C18.1 7.13 17.66 8.59 17.66 10.1L17.66 20.64C17.66 21.93 18.71 22.98 20 22.98C21.29 22.98 22.34 21.93 22.34 20.64L22.34 10.1C22.34 8.59 21.9 7.13 21.07 5.88L20 4.32L18.93 5.88ZM18.93 5.88" />
			</g>
		</g>
	</g>
</svg>